<svg width="277" height="147" viewBox="0 0 277 147" fill="none" xmlns="http://www.w3.org/2000/svg">
<path d="M245.435 38.1265C244.493 38.1265 243.582 37.7011 242.982 36.9585L240.904 34.3827C240.203 33.5164 240.024 32.3329 240.429 31.3042L241.636 28.2256C242.04 27.1891 242.975 26.4465 244.08 26.2763L247.373 25.7736C248.471 25.6034 249.6 26.0365 250.292 26.9029L252.371 29.4787C253.072 30.345 253.251 31.5285 252.846 32.5572L251.639 35.6358C251.234 36.6723 250.3 37.4149 249.195 37.5851L245.902 38.0878C245.746 38.111 245.59 38.1265 245.435 38.1265ZM247.848 28.1018C247.809 28.1018 247.77 28.1018 247.731 28.1096L244.438 28.6123C244.174 28.651 243.948 28.8289 243.854 29.0764L242.648 32.155C242.554 32.4025 242.593 32.6887 242.764 32.8976L244.843 35.4811C245.014 35.69 245.287 35.7905 245.544 35.7518L248.837 35.2491C249.101 35.2104 249.327 35.0325 249.421 34.7849L250.627 31.7064C250.721 31.4589 250.682 31.1727 250.51 30.9638L248.432 28.388C248.292 28.2024 248.074 28.1018 247.848 28.1018Z" fill="#E0E0E0"/>
<path d="M26.4645 55.6696C25.5225 55.6696 24.6039 55.2442 24.0044 54.5016L21.9181 51.9181C21.2174 51.0518 21.0306 49.8683 21.4432 48.8318L22.6576 45.7455C23.0624 44.709 24.0044 43.9587 25.1099 43.7885L28.4107 43.2857C29.5161 43.1156 30.6372 43.5487 31.3456 44.4228L33.432 47.0063C34.1326 47.8726 34.3194 49.0561 33.9068 50.0926L32.6924 53.1789C32.2876 54.2154 31.3456 54.9657 30.2401 55.1359L26.9393 55.6387C26.7836 55.6619 26.6279 55.6696 26.4645 55.6696ZM28.8856 45.614C28.8466 45.614 28.8077 45.614 28.7688 45.6217L25.468 46.1245C25.2033 46.1632 24.9775 46.3411 24.8763 46.5964L23.6619 49.6827C23.5607 49.9302 23.6074 50.2164 23.7787 50.4252L25.865 53.0087C26.0363 53.2176 26.3088 53.3181 26.5657 53.2795L29.8665 52.7767C30.1312 52.738 30.3569 52.5601 30.4581 52.3049L31.6726 49.2186C31.7738 48.971 31.7271 48.6848 31.5558 48.476L29.4694 45.8925C29.3293 45.7223 29.1113 45.614 28.8856 45.614Z" fill="#F1D675"/>
<path d="M265.204 83.0519C264.223 83.0519 263.281 82.611 262.659 81.8375L258.712 76.9412C257.988 76.0439 257.801 74.814 258.221 73.7465L260.51 67.8988C260.93 66.8236 261.904 66.0501 263.048 65.8722L269.291 64.9208C270.436 64.7429 271.596 65.1993 272.328 66.0965L276.274 70.9928C276.998 71.8901 277.185 73.1123 276.765 74.1875L274.476 80.0352C274.056 81.1104 273.083 81.8839 271.938 82.0618L265.695 83.0132C265.531 83.0441 265.368 83.0519 265.204 83.0519ZM261.382 74.9068L265.251 79.7026L271.362 78.7744L273.604 73.0504L269.735 68.2546L263.624 69.1828L261.382 74.9068Z" fill="#A1B893"/>
<path d="M14.1254 95.5751H8.10761C6.65183 95.5751 5.28947 94.7939 4.55769 93.5408L1.54493 88.3583C0.813148 87.1052 0.813148 85.5427 1.54493 84.2896L4.55769 79.1071C5.28947 77.854 6.64405 77.0728 8.10761 77.0728H14.1254C15.5811 77.0728 16.9435 77.854 17.6753 79.1071L20.688 84.2896C21.4198 85.5427 21.4198 87.1052 20.688 88.3583L17.6753 93.5408C16.9435 94.7939 15.5811 95.5751 14.1254 95.5751ZM8.10761 80.1668C7.75729 80.1668 7.43033 80.3524 7.25906 80.6541L4.2463 85.8366C4.06724 86.1383 4.06724 86.5096 4.2463 86.8113L7.25906 91.9938C7.43811 92.2954 7.75729 92.4811 8.10761 92.4811H14.1254C14.4757 92.4811 14.8026 92.2954 14.9817 91.9938L17.9945 86.8113C18.1735 86.5096 18.1735 86.1383 17.9945 85.8366L14.9817 80.6541C14.8026 80.3524 14.4835 80.1668 14.1254 80.1668H8.10761Z" fill="#EBEBEB"/>
<path d="M229.219 10.0711H52.2441V2.52938C52.2441 1.12933 53.3885 0 54.7898 0H226.665C228.074 0 229.211 1.13706 229.211 2.52938V10.0711H229.219Z" fill="#A1B893"/>
<path d="M222.142 135.001H58.8844C55.0932 135.001 52.0259 131.945 52.0337 128.178L52.2517 10.071H229V128.186C228.993 131.953 225.925 135.001 222.142 135.001Z" fill="white"/>
<path d="M72.3758 5.20593C72.3758 6.2115 71.5973 7.02368 70.632 7.02368C69.6667 7.02368 68.8882 6.2115 68.8882 5.20593C68.8882 4.20037 69.6667 3.38818 70.632 3.38818C71.5973 3.38818 72.3758 4.20037 72.3758 5.20593Z" fill="#FAFAFA"/>
<path d="M61.8036 5.20593C61.8036 6.2115 61.0251 7.02368 60.0597 7.02368C59.0944 7.02368 58.3159 6.2115 58.3159 5.20593C58.3159 4.20037 59.0944 3.38818 60.0597 3.38818C61.0251 3.38818 61.8036 4.20037 61.8036 5.20593Z" fill="#FAFAFA"/>
<path d="M67.2376 5.20593C67.2376 6.2115 66.4592 7.02368 65.4938 7.02368C64.5285 7.02368 63.75 6.2115 63.75 5.20593C63.75 4.20037 64.5285 3.38818 65.4938 3.38818C66.4592 3.38818 67.2376 4.20037 67.2376 5.20593Z" fill="#FAFAFA"/>
<g opacity="0.25">
<g opacity="0.25">
<g opacity="0.25">
<g opacity="0.25">
<g opacity="0.25">
<path opacity="0.25" d="M117.372 34.0422C120.852 31.9537 124.566 30.368 128.388 29.2851L130.661 18.4482L149.088 18.1311L151.743 28.8829C155.604 29.8266 159.364 31.2808 162.922 33.2532L172.233 27.1889L185.491 39.9054L179.722 49.3655C181.832 52.8308 183.428 56.5127 184.51 60.3184L195.416 62.5693L195.743 80.8783L184.922 83.5159C183.972 87.3526 182.509 91.0886 180.524 94.6236L186.627 103.875L173.829 117.048L164.308 111.316C160.82 113.404 157.114 114.99 153.292 116.073L151.019 126.91L132.592 127.235L129.937 116.483C126.076 115.539 122.316 114.085 118.758 112.113L109.447 118.177L96.1897 105.46L101.958 96.0004C99.8564 92.5351 98.2528 88.8532 97.1706 85.0552L86.264 82.7966L85.937 64.4876L96.758 61.8499C97.7078 58.0133 99.1792 54.2772 101.157 50.7423L95.0532 41.4911L107.852 28.3182L117.372 34.0422ZM127.197 58.4233C119.615 66.228 119.833 78.666 127.688 86.2C135.542 93.734 148.053 93.5174 155.643 85.7127C163.226 77.908 163.008 65.4699 155.153 57.936C147.298 50.402 134.78 50.6263 127.197 58.4233Z" fill="#E0E0E0"/>
</g>
</g>
</g>
</g>
</g>
<path d="M172.474 44.3608C172.731 42.9916 173.167 41.6767 173.759 40.4468L171.462 37.3914L175.588 32.5957L178.983 34.3747C180.111 33.6012 181.349 32.9669 182.673 32.5106L183.225 28.7358L189.554 28.2485L190.691 31.8918C192.069 32.147 193.392 32.5802 194.63 33.1681L197.705 30.8862L202.532 34.9858L200.741 38.3583C201.52 39.4799 202.158 40.7098 202.617 42.0248L206.417 42.5739L206.915 48.8626L203.248 49.9919C202.991 51.361 202.555 52.676 201.964 53.9059L204.26 56.9612L200.134 61.757L196.74 59.9779C195.611 60.7514 194.373 61.3857 193.05 61.8421L192.497 65.6168L186.168 66.1119L185.031 62.4686C183.653 62.2134 182.33 61.7802 181.092 61.1923L178.017 63.4742L173.191 59.3746L174.981 56.0021C174.203 54.8805 173.564 53.6506 173.105 52.3356L169.306 51.7864L168.808 45.4978L172.474 44.3608ZM181.053 46.2713C180.672 50.7809 184.627 54.3158 189.025 53.5655C192.022 53.0473 194.373 50.5334 194.63 47.5244C195.012 43.0148 191.057 39.4722 186.658 40.2302C183.661 40.7407 181.31 43.2546 181.053 46.2713Z" fill="#E0E0E0"/>
<path d="M64.6998 92.3417C64.7387 91.019 64.9567 89.7195 65.3381 88.4819L62.738 85.9371L65.922 80.8396L69.3707 82.0231C70.3205 81.1336 71.3948 80.3601 72.5703 79.7413L72.547 76.1135L78.4324 74.7444L80.0283 78.0086C81.3595 78.0473 82.6674 78.2639 83.913 78.6429L86.4742 76.0594L91.6045 79.223L90.4134 82.6497C91.3086 83.5933 92.0871 84.6608 92.7099 85.8288L96.361 85.8056L97.739 91.6533L94.4537 93.239C94.4148 94.5617 94.1968 95.8612 93.8154 97.0988L96.4155 99.6437L93.2315 104.741L89.7828 103.558C88.833 104.447 87.7587 105.221 86.5832 105.839L86.6065 109.467L80.7211 110.836L79.1252 107.572C77.794 107.533 76.4861 107.317 75.2406 106.938L72.6793 109.521L67.5491 106.358L68.7402 102.931C67.8449 101.987 67.0664 100.92 66.4436 99.752L62.7925 99.7752L61.4146 93.9274L64.6998 92.3417ZM73.2087 93.9893C74.0261 97.4546 77.5138 99.605 81.0014 98.7928C84.489 97.9806 86.6532 94.5153 85.8358 91.05C85.0184 87.5847 81.5308 85.4343 78.0431 86.2465C74.5555 87.0587 72.3913 90.524 73.2087 93.9893Z" fill="#E0E0E0"/>
<path d="M84.8471 44.0822C85.0418 43.0457 85.3687 42.0556 85.8125 41.1351L84.0842 38.8301L87.1982 35.21L89.7594 36.5482C90.608 35.9681 91.5422 35.4885 92.5386 35.1404L92.959 32.2939L97.7312 31.9226L98.5875 34.6686C99.6307 34.8619 100.627 35.1868 101.554 35.6277L103.873 33.9105L107.517 37.0046L106.17 39.5494C106.754 40.3925 107.237 41.3208 107.587 42.3109L110.452 42.7285L110.825 47.4702L108.062 48.321C107.867 49.3575 107.54 50.3476 107.096 51.2681L108.825 53.5732L105.711 57.1855L103.149 55.8473C102.301 56.4274 101.367 56.907 100.37 57.2551L99.9499 60.1016L95.1777 60.4729L94.3214 57.7269C93.2782 57.5335 92.2817 57.2087 91.3553 56.7678L89.0354 58.485L85.3999 55.3909L86.7467 52.8461C86.1628 52.0029 85.6801 51.0747 85.3298 50.0846L82.465 49.6669L82.0835 44.9331L84.8471 44.0822ZM91.3164 46.3873C91.5344 49.1951 94.01 51.299 96.8359 51.0747C99.6618 50.8581 101.779 48.3984 101.554 45.5905C101.336 42.7827 98.86 40.6787 96.0341 40.9031C93.2081 41.1196 91.0906 43.5717 91.3164 46.3873Z" fill="#EBEBEB"/>
<path d="M190.216 86.7647C190.379 85.8752 190.659 85.0243 191.049 84.2354L189.562 82.2552L192.232 79.1457L194.435 80.2982C195.167 79.7954 195.969 79.3854 196.825 79.0915L197.183 76.6472L201.286 76.3301L202.025 78.6893C202.921 78.8517 203.777 79.1302 204.579 79.5169L206.572 78.0395L209.701 80.6927L208.541 82.8817C209.047 83.6088 209.46 84.4055 209.756 85.2564L212.216 85.6122L212.535 89.6886L210.161 90.4235C209.997 91.313 209.717 92.1639 209.328 92.9606L210.815 94.9408L208.144 98.0503L205.941 96.8977C205.209 97.4005 204.408 97.8105 203.551 98.1044L203.193 100.549L199.09 100.866L198.351 98.5066C197.456 98.3442 196.599 98.0657 195.797 97.679L193.805 99.1564L190.675 96.5033L191.835 94.3142C191.329 93.5871 190.916 92.7904 190.621 91.9395L188.16 91.5837L187.841 87.5073L190.216 86.7647ZM195.774 88.7449C195.961 91.1583 198.086 92.9606 200.515 92.7749C202.944 92.5893 204.758 90.4776 204.571 88.0642C204.384 85.6509 202.259 83.8486 199.83 84.0342C197.401 84.2199 195.58 86.3316 195.774 88.7449Z" fill="#EBEBEB"/>
<path d="M140.836 100.966H112.491C105.174 100.966 100.596 93.0921 104.255 86.7957L118.424 62.407L132.592 38.0182C136.251 31.7218 145.398 31.7218 149.057 38.0182L163.226 62.407L177.394 86.7957C181.053 93.0921 176.476 100.966 169.158 100.966H140.836Z" fill="#F1D675"/>
<path d="M155.051 48.3135L110.919 75.3399L105.181 85.2099L158.173 53.6816L155.051 48.3135Z" fill="#FFEBA3"/>
<path d="M162.004 60.2952L103.5 94.5849C103.671 95.3661 104.193 96.364 104.769 97.0292L163.039 62.0742L162.004 60.2952Z" fill="#FFEBA3"/>
<path d="M48.3283 146.364C46.748 146.364 45.2221 145.652 44.2179 144.407L37.8265 136.494C36.651 135.04 36.3473 133.059 37.0324 131.319L40.738 121.867C41.4153 120.134 42.9957 118.873 44.8485 118.595L54.9455 117.055C56.7983 116.777 58.6823 117.504 59.85 118.958L66.2336 126.871C67.4092 128.325 67.7128 130.306 67.0355 132.046L63.3299 141.498C62.6526 143.239 61.0722 144.492 59.2194 144.77L49.1224 146.31C48.8577 146.341 48.593 146.364 48.3283 146.364ZM42.1471 133.183L48.4062 140.934L58.293 139.425L61.9208 130.166L55.6617 122.416L45.7749 123.924L42.1471 133.183Z" fill="#A1B893"/>
<path d="M227.646 122.416C226.416 122.416 225.225 121.859 224.446 120.892L221.729 117.52C220.819 116.39 220.577 114.843 221.107 113.497L222.687 109.475C223.216 108.121 224.438 107.147 225.886 106.93L230.184 106.273C231.624 106.048 233.088 106.621 233.998 107.75L236.715 111.123C237.626 112.252 237.867 113.799 237.338 115.145L235.758 119.167C235.228 120.521 234.006 121.495 232.558 121.712L228.261 122.369C228.058 122.4 227.848 122.416 227.646 122.416ZM230.799 109.32C230.752 109.32 230.698 109.32 230.651 109.328L226.354 109.986C226.011 110.04 225.715 110.272 225.591 110.597L224.01 114.619C223.886 114.944 223.94 115.315 224.158 115.586L226.875 118.958C227.093 119.229 227.451 119.368 227.794 119.314L232.091 118.657C232.434 118.602 232.729 118.37 232.854 118.045L234.434 114.023C234.559 113.698 234.504 113.327 234.286 113.056L231.569 109.684C231.375 109.46 231.095 109.32 230.799 109.32Z" fill="#F1D675"/>
<path d="M176.904 142.334C176.608 142.334 176.312 142.287 176.032 142.187L171.517 140.632C170.614 140.323 169.944 139.549 169.765 138.621L168.862 133.957C168.683 133.028 169.018 132.062 169.742 131.443L173.354 128.333C174.078 127.714 175.082 127.521 175.985 127.83L180.5 129.385C181.403 129.695 182.073 130.468 182.252 131.396L183.155 136.061C183.334 136.989 182.999 137.956 182.275 138.574L178.663 141.684C178.173 142.109 177.542 142.334 176.904 142.334ZM172.63 137.909L176.849 139.363L180.228 136.455L179.387 132.092L175.168 130.638L171.789 133.547L172.63 137.909Z" fill="#EBEBEB"/>
<path d="M137.754 86.4398C137.754 84.8463 139.031 83.6629 140.852 83.6629C142.674 83.6629 143.92 84.8463 143.92 86.4398C143.92 88.0023 142.674 89.2708 140.852 89.2708C139.031 89.2708 137.754 88.0023 137.754 86.4398ZM137.785 54.8728H143.92L142.884 80.1589H138.782L137.785 54.8728Z" fill="white"/>
</svg>
