<svg width="13" height="15" viewBox="0 0 13 15" fill="none" xmlns="http://www.w3.org/2000/svg">
<path d="M11.5758 6.28792C11.5758 10.5303 6.12123 14.1667 6.12123 14.1667C6.12123 14.1667 0.666687 10.5303 0.666687 6.28792C0.666687 4.84128 1.24136 3.4539 2.26429 2.43097C3.28721 1.40805 4.6746 0.833374 6.12123 0.833374C7.56787 0.833374 8.95525 1.40805 9.97818 2.43097C11.0011 3.4539 11.5758 4.84128 11.5758 6.28792Z" stroke="#769763" stroke-linecap="round" stroke-linejoin="round"/>
<path d="M6.12122 8.10609C7.12538 8.10609 7.9394 7.29206 7.9394 6.28791C7.9394 5.28375 7.12538 4.46973 6.12122 4.46973C5.11707 4.46973 4.30304 5.28375 4.30304 6.28791C4.30304 7.29206 5.11707 8.10609 6.12122 8.10609Z" stroke="#769763" stroke-linecap="round" stroke-linejoin="round"/>
</svg>
